<svg xmlns="http://www.w3.org/2000/svg" xmlns:xlink="http://www.w3.org/1999/xlink" width="375" height="619" viewBox="0 0 375 619">
  <defs>
    <clipPath id="clip-path">
      <rect id="Retângulo_54" data-name="Retângulo 54" width="375" height="619" transform="translate(727.021 87.991)" fill="#fff"/>
    </clipPath>
  </defs>
  <g id="Grupo_de_máscara_2" data-name="Grupo de máscara 2" transform="translate(-727.021 -87.991)" clip-path="url(#clip-path)">
    <g id="grafismo" transform="translate(830.353 -16.937)">
      <rect id="Retângulo_21" data-name="Retângulo 21" width="197.247" height="282.498" transform="translate(44.23 73.89) rotate(-22)" fill="#ff595a" opacity="0.4"/>
      <rect id="Retângulo_22" data-name="Retângulo 22" width="200.882" height="249.158" transform="translate(84.173 449.85) rotate(7.585)" fill="#8a1a9b" opacity="0.3"/>
      <rect id="Retângulo_23" data-name="Retângulo 23" width="183.544" height="226.789" transform="translate(84.957 439.52) rotate(22)" fill="#fbb040" opacity="0.3"/>
      <rect id="Retângulo_24" data-name="Retângulo 24" width="187.325" height="247.068" transform="matrix(0.996, -0.087, 0.087, 0.996, 83.703, 256.042)" fill="#f7941e" opacity="0.5"/>
      <rect id="Retângulo_25" data-name="Retângulo 25" width="179.486" height="246.752" transform="translate(138.406 281.172) rotate(13)" fill="#2b3990" opacity="0.3"/>
      <rect id="Retângulo_26" data-name="Retângulo 26" width="160" height="215" transform="translate(77.968 508.452)" fill="#221f1f"/>
      <path id="Caminho_12" data-name="Caminho 12" d="M11.78-4.92c0-2.6-1.06-5.04-4.86-5.04A3.755,3.755,0,0,0,3.74-8.6c0-1-.26-1.24-2.78-1.24V1.64c0,1.08.14,1.56.5,1.82.58.46,2.12.34,2.84.34V-1.04A3.893,3.893,0,0,0,7.1.12C10.7.12,11.78-2.36,11.78-4.92Zm-3.38,0c0,2.26,0,2.26-2.08,2.26-1.74,0-2.04-.6-2.04-2.26,0-2.28.02-2.28,2.1-2.28C8.02-7.2,8.4-6.62,8.4-4.92ZM23.96,0V-5.5c0-2.64-1.2-4.3-5.44-4.3H14.4c0,2.32.22,2.64,2.2,2.64h2.04c1.38,0,1.98.48,1.98,1.38H18.18c-3.08,0-4.74.42-4.74,2.66C13.44-.76,15.72.1,17.96.1a3.507,3.507,0,0,0,3.22-1.52C21.18,0,21.88,0,23.96,0ZM20.62-4.08c0,1.78-.02,1.58-2.2,1.58-1.38,0-1.54-.38-1.54-.64,0-.78,0-.94,1.6-.94ZM36.52,0V-5.26c0-2.58-.74-4.7-4.54-4.7a3.334,3.334,0,0,0-3.02,1.68c0-1.56-.82-1.56-2.78-1.56v7.72c0,1.04.14,1.54.5,1.78.6.46,2.14.34,2.86.34V-5.42c0-1.86,0-1.86,1.9-1.86,1.54,0,1.72.48,1.72,1.86v3.3C33.16-.12,33.64,0,36.52,0ZM49.28,0V-11.4c0-1.08-.14-1.58-.48-1.84-.6-.46-2.14-.34-2.86-.34V-8.5a3.119,3.119,0,0,0-2.92-1.46c-3.46,0-4.58,2.42-4.58,5.02,0,2.56,1.04,5.06,4.86,5.06a3.4,3.4,0,0,0,3.2-1.56C46.5.12,47.26,0,49.28,0ZM45.96-4.94c0,2.38-.02,2.28-2.1,2.28-1.66,0-2.02-.6-2.02-2.28,0-2.3,0-2.22,2.06-2.22C45.66-7.16,45.96-6.56,45.96-4.94Zm16.1-.7c0-2.42-1.72-4.32-5.08-4.32-4.36,0-5.56,2.5-5.56,5.02S52.6.02,56.96.02H61.3c0-2.32-.26-2.64-2.28-2.64H56.86c-1.38,0-2-.38-2-1.46H59.3a6.619,6.619,0,0,0,2.18-.16C61.88-4.44,62.06-4.64,62.06-5.64Zm-3.4-.2H54.82c0-1.52.04-1.52,2-1.52C58.16-7.36,58.66-6.82,58.66-5.84ZM79.12,0V-5.68c0-2.1-.62-4.28-3.9-4.28a3.243,3.243,0,0,0-2.98,1.54c-.2-.98-1.28-1.54-2.78-1.54a2.572,2.572,0,0,0-2.48,1.68c0-1.58-.82-1.58-2.76-1.58v7.72c0,1.06.14,1.54.5,1.8.6.46,2.12.34,2.86.34V-5.78c0-1.4,0-1.46,1.24-1.46.96,0,1.16.32,1.16,1.46v3.64c0,1.06.14,1.54.5,1.8.6.46,2.14.34,2.88.34V-5.78c0-1.38,0-1.46,1.22-1.46.96,0,1.16.32,1.16,1.46v3.64c0,1.06-.02,2,1.46,2.12C77.52,0,77.92,0,79.12,0Zm6.06-12.6c0-1.44-1.1-1.76-2.14-1.76-1,0-2.16.3-2.16,1.76,0,1.44,1.16,1.72,2.2,1.72C84.08-10.88,85.18-11.18,85.18-12.6ZM84.78,0V-7.68c0-1.06-.14-1.56-.5-1.82-.6-.46-2.14-.34-2.86-.34V-2.2C81.42-.14,81.88,0,84.78,0ZM97.22,0V-5.5c0-2.64-1.2-4.3-5.44-4.3H87.66c0,2.32.22,2.64,2.2,2.64H91.9c1.38,0,1.98.48,1.98,1.38H91.44c-3.08,0-4.74.42-4.74,2.66C86.7-.76,88.98.1,91.22.1a3.507,3.507,0,0,0,3.22-1.52C94.44,0,95.14,0,97.22,0ZM93.88-4.08c0,1.78-.02,1.58-2.2,1.58-1.38,0-1.54-.38-1.54-.64,0-.78,0-.94,1.6-.94Z" transform="translate(114.669 695.928)" fill="#fff"/>
      <path id="Caminho_11" data-name="Caminho 11" d="M9.12,0V-9.12c0-.864-.112-1.264-.384-1.472a4.766,4.766,0,0,0-2.288-.272V-6.8A2.5,2.5,0,0,0,4.112-7.968C1.344-7.968.448-6.032.448-3.952.448-1.9,1.28.1,4.336.1A2.719,2.719,0,0,0,6.9-1.152C6.9.1,7.5,0,9.12,0ZM6.464-3.952c0,1.9-.016,1.824-1.68,1.824-1.328,0-1.616-.48-1.616-1.824,0-1.84,0-1.776,1.648-1.776C6.224-5.728,6.464-5.248,6.464-3.952ZM18.72,0V-4.4c0-2.112-.96-3.44-4.352-3.44h-3.3c0,1.856.176,2.112,1.76,2.112h1.632c1.1,0,1.584.384,1.584,1.1H14.1c-2.464,0-3.792.336-3.792,2.128C10.3-.608,12.128.08,13.92.08A2.805,2.805,0,0,0,16.5-1.136C16.5,0,17.056,0,18.72,0ZM16.048-3.264C16.048-1.84,16.032-2,14.288-2c-1.1,0-1.232-.3-1.232-.512,0-.624,0-.752,1.28-.752Z" transform="translate(179.172 670.79)" fill="#fff"/>
      <path id="Caminho_10" data-name="Caminho 10" d="M5.872-7.872c-1.456-.064-2.416.3-2.88,1.072,0-.88-.368-1.072-2.224-1.072v6.208C.768-.1,1.152,0,3.456,0V-4.3c0-1.424,0-1.424.864-1.424.752,0,1.44.032,1.536-.928C5.872-6.848,5.872-7.088,5.872-7.872Zm8.752,3.36c0-1.936-1.376-3.456-4.064-3.456-3.488,0-4.448,2-4.448,4.016S7.056.016,10.544.016h3.472c0-1.856-.208-2.112-1.824-2.112H10.464c-1.1,0-1.6-.3-1.6-1.168h3.552a5.3,5.3,0,0,0,1.744-.128C14.48-3.552,14.624-3.712,14.624-4.512Zm-2.72-.16H8.832c0-1.216.032-1.216,1.6-1.216C11.5-5.888,11.9-5.456,11.9-4.672Zm9.248-3.2H19.024V-9.856H16.336v1.968c0,.368-.224.368-1.04.368l-.048,1.648h1.088v3.36c0,1.632.624,2.544,2.336,2.544h2.4c0-1.792,0-2.176-1.792-2.176-.208,0-.224-.16-.224-.368v-3.36h.224C20.944-5.872,21.152-5.92,21.152-7.872Zm6,0c-1.456-.064-2.416.3-2.88,1.072,0-.88-.368-1.072-2.224-1.072v6.208C22.048-.1,22.432,0,24.736,0V-4.3c0-1.424,0-1.424.864-1.424.752,0,1.44.032,1.536-.928C27.152-6.848,27.152-7.088,27.152-7.872ZM35.744,0V-4.4c0-2.112-.96-3.44-4.352-3.44H28.1c0,1.856.176,2.112,1.76,2.112h1.632c1.1,0,1.584.384,1.584,1.1H31.12c-2.464,0-3.792.336-3.792,2.128C27.328-.608,29.152.08,30.944.08A2.805,2.805,0,0,0,33.52-1.136C33.52,0,34.08,0,35.744,0ZM33.072-3.264C33.072-1.84,33.056-2,31.312-2c-1.1,0-1.232-.3-1.232-.512,0-.624,0-.752,1.28-.752ZM42.32-7.872H40.192V-9.856H37.5v1.968c0,.368-.224.368-1.04.368l-.048,1.648H37.5v3.36C37.5-.88,38.128.032,39.84.032h2.4c0-1.792,0-2.176-1.792-2.176-.208,0-.224-.16-.224-.368v-3.36h.224C42.112-5.872,42.32-5.92,42.32-7.872Zm9.344,3.936c0-2-.976-4.016-4.432-4.016-3.488,0-4.416,2.016-4.416,4.016C42.816-1.92,43.728.1,47.232.1,50.656.1,51.664-1.9,51.664-3.936Zm-2.736,0c0,1.888,0,1.888-1.728,1.888-1.344,0-1.664-.656-1.664-1.888,0-1.856,0-1.856,1.712-1.856C48.64-5.792,48.928-5.12,48.928-3.936Zm10.944,1.52c0-1.68-1.6-1.936-3.04-2.192C55.76-4.816,55.1-4.912,55.1-5.2c0-.576,0-.576,1.232-.576h1.392c1.952,0,1.728-.64,1.728-2.1H56.384c-2.528,0-3.968.864-3.968,2.5,0,1.76,2.048,1.84,3.552,2.128.864.176,1.232.176,1.232.528,0,.624,0,.624-1.36.624H54.3c-2,0-1.76.624-1.76,2.112h3.328C58.5.016,59.872-1.024,59.872-2.416Z" transform="translate(116.155 670.951)" fill="#fff"/>
    </g>
  </g>
</svg>
